<svg xmlns="http://www.w3.org/2000/svg" version="1.1" viewBox="-5.0 -10.0 110.0 135.0">
 <path d="m40.199 16.613c3.1484-3.1484 8.1914-3.2891 13.391-1.7188 4.6094 1.3906 9.7148 4.2227 14.645 8.1836-0.17188 0.61328-0.26562 1.2539-0.26562 1.9219 0 3.8828 3.1484 7.0312 7.0312 7.0312 0.71875 0 1.4141-0.10938 2.0664-0.30859 4.2812 5.0938 7.3594 10.422 8.9023 15.234 1.7148 5.3594 1.6602 10.582-1.5508 13.82-0.007813 0.007812-0.015625 0.019531-0.023438 0.027344l-0.57812 0.56641c-5.8555 5.5664-13.344 8.4258-20.875 8.5781l3.8594 12.863h23.824l0.16016 0.007812c0.78906 0.078126 1.4023 0.74609 1.4023 1.5547v6.25c0 0.86328-0.69922 1.5625-1.5625 1.5625h-81.25c-0.86328 0-1.5625-0.69922-1.5625-1.5625v-6.25l0.007812-0.16016c0.078126-0.78906 0.74609-1.4023 1.5547-1.4023h23.773l5.8242-23.309c-10.781-12.07-10.562-30.504 0.66406-42.316zm1.168 66.16h16.895l-8.6875-3.8633zm11.941-5.6211 9.8398 4.3711-2.3672-7.8906zm-16.621 4.3672 9.1094-4.2891-7.2344-3.2148zm12.848-6.0469 7.7305-3.6367h-15.918zm-9.6445-6.7617h13.645c-4.3242-1.2578-8.4297-3.4727-11.988-6.6367zm16.531-18.395c4.8047 4.207 9.793 7.2188 14.211 8.7969 4.5742 1.6328 8.1367 1.6172 10.391 0.35547 0.039062-0.023438 0.078124-0.042969 0.11328-0.066406 0.39062-0.23047 0.74219-0.5 1.0469-0.80469 1.9531-1.957 2.4258-5.6445 0.80859-10.688-1.4727-4.6016-4.5703-9.9102-9.0352-15.023zm-3.7344-32.43c-4.8477-1.4648-8.3789-0.96484-10.277 0.93359l-0.1875 0.20313c-0.27734 0.30469-0.51953 0.65234-0.72656 1.0391-0.019532 0.03125-0.039063 0.066406-0.058594 0.10156-0.074219 0.14063-0.14062 0.28906-0.20312 0.44141-0.089844 0.21094-0.17188 0.43359-0.23828 0.66406-0.046875 0.15234-0.089844 0.3125-0.12891 0.47266-0.058594 0.26562-0.11328 0.53906-0.15234 0.82422-0.035156 0.27734-0.0625 0.56641-0.074219 0.86719-0.09375 1.9258 0.29688 4.2578 1.2539 6.9375 1.4727 4.125 4.1953 8.7461 7.9727 13.254l17.52-17.203c-5.043-4.2617-10.23-7.1875-14.699-8.5352zm22.312 1.6445c3.0195 0 5.4688 2.4492 5.4688 5.4688s-2.4492 5.4688-5.4688 5.4688-5.4688-2.4492-5.4688-5.4688 2.4492-5.4688 5.4688-5.4688zm4.6875-5.4688c3.4531 0 6.25 2.7969 6.25 6.25 0 0.86328-0.69922 1.5625-1.5625 1.5625s-1.5625-0.69922-1.5625-1.5625c0-1.7266-1.3984-3.125-3.125-3.125-0.86328 0-1.5625-0.69922-1.5625-1.5625s0.69922-1.5625 1.5625-1.5625zm1.5625-6.25c6.0391 0 10.938 4.8984 10.938 10.938 0 0.86328-0.69922 1.5625-1.5625 1.5625s-1.5625-0.69922-1.5625-1.5625c0-4.3164-3.4961-7.8125-7.8125-7.8125-0.86328 0-1.5625-0.69922-1.5625-1.5625s0.69922-1.5625 1.5625-1.5625z"/>
<text x="0.0" y="117.5" font-size="5.0" font-weight="bold" font-family="Arbeit Regular, Helvetica, Arial-Unicode, Arial, Sans-serif" fill="#000000">Created by Arif Setyadi</text><text x="0.0" y="122.5" font-size="5.0" font-weight="bold" font-family="Arbeit Regular, Helvetica, Arial-Unicode, Arial, Sans-serif" fill="#000000">from Noun Project</text></svg>